<svg width="141" height="60" viewBox="0 0 141 60" fill="none" xmlns="http://www.w3.org/2000/svg">
<g clip-path="url(#clip0_307_12)">
<mask id="mask0_307_12" style="mask-type:luminance" maskUnits="userSpaceOnUse" x="0" y="0" width="142" height="61">
<path d="M0 0H141.42V60.0003H0V0Z" fill="white"/>
</mask>
<g mask="url(#mask0_307_12)">
<path fill-rule="evenodd" clip-rule="evenodd" d="M71.3929 32.5177L83.2497 6.93599H89.5632L92.7807 -0.00244141H126.377L123.131 7.00071H141.001L116.435 60.0004H95.6376C76.277 60.0004 68.4127 56.3269 61.4728 50.6072C52.6392 43.325 47.6124 36.5967 39.8975 36.4703L28.9917 60.0004H0L24.4463 7.25534L25.0987 7.21077C37.0502 6.4017 47.5511 8.68907 56.5935 16.842C58.9576 18.9718 61.1171 21.338 63.1019 23.8281C64.9227 26.116 66.8164 28.5323 68.9268 30.5571C69.674 31.2727 70.5085 31.9261 71.3929 32.5171" fill="#211E1E"/>
</g>
<path fill-rule="evenodd" clip-rule="evenodd" d="M72.374 33.1618C73.0213 33.5054 73.702 33.7746 74.4109 33.9418C74.9489 34.0658 75.4964 34.1302 76.049 34.1302C79.2239 34.1302 81.1773 31.733 82.4055 29.0806L92.1972 7.89062H84.0861L72.374 33.1618Z" fill="#EE3A21"/>
<path fill-rule="evenodd" clip-rule="evenodd" d="M122.894 1.19482H93.4161L90.7537 6.93602H93.888L83.4061 29.548C82.0999 32.3696 79.8547 35.2416 76.0493 35.2416C70.8972 35.2416 67.0042 30.502 62.2386 24.5224C60.4749 22.3064 58.3362 19.9044 55.8563 17.6696C49.8744 12.2744 40.9837 7.18682 25.1695 8.25762L2.21484 57.784H27.6167L39.4692 32.21C48.8176 32.21 55.8066 42.8836 67.3319 51.6492C75.3976 57.784 84.1392 58.5904 96.2903 58.5904L122.894 1.19482Z" fill="white"/>
</g>
<defs>
<clipPath id="clip0_307_12">
<rect width="141" height="60" fill="white"/>
</clipPath>
</defs>
</svg>
