<svg width="322" height="136" viewBox="0 0 322 136" fill="none" xmlns="http://www.w3.org/2000/svg">
<g clip-path="url(#clip0_307_3)">
<mask id="mask0_307_3" style="mask-type:luminance" maskUnits="userSpaceOnUse" x="0" y="0" width="323" height="137">
<path d="M0 0H322.959V136.001H0V0Z" fill="white"/>
</mask>
<g mask="url(#mask0_307_3)">
<path fill-rule="evenodd" clip-rule="evenodd" d="M163.039 73.7068L190.116 15.7215H204.534L211.882 -0.00561523H288.605L281.192 15.8682H322.002L265.902 136.001H218.406C174.193 136.001 156.233 127.674 140.385 114.71C120.212 98.2033 108.732 82.9524 91.1133 82.6659L66.208 136.001H0L55.8276 16.4454L57.3177 16.3443C84.6112 14.5104 108.592 19.6951 129.242 38.1751C134.641 43.0028 139.572 48.366 144.105 54.0102C148.263 59.1963 152.588 64.673 157.407 69.2626C159.114 70.8847 161.019 72.3657 163.039 73.7054" fill="#211E1E"/>
</g>
<path fill-rule="evenodd" clip-rule="evenodd" d="M165.28 75.1663C166.758 75.9451 168.312 76.5553 169.931 76.9343C171.16 77.2153 172.41 77.3613 173.672 77.3613C180.923 77.3613 185.384 71.9277 188.189 65.9155L210.55 17.8849H192.027L165.28 75.1663Z" fill="#EE3A21"/>
<path fill-rule="evenodd" clip-rule="evenodd" d="M280.651 2.70825H213.333L207.253 15.7216H214.411L190.473 66.9755C187.49 73.3711 182.363 79.881 173.672 79.881C161.907 79.881 153.016 69.1379 142.133 55.5841C138.105 50.5612 133.221 45.1167 127.558 40.0511C113.897 27.822 93.5935 16.2901 57.4789 18.7173L5.05762 130.977H63.0676L90.135 73.0094C111.484 73.0094 127.445 97.2029 153.765 117.072C172.184 130.977 192.147 132.805 219.897 132.805L280.651 2.70825Z" fill="white"/>
</g>
<defs>
<clipPath id="clip0_307_3">
<rect width="322" height="136" fill="white"/>
</clipPath>
</defs>
</svg>
